name C:\Users\antoi\Documents\MyRepositories\upper-imu-dc\Results\main_tracking\Case_79\ABD01_linearAccelerations_groundFrame.mot
datacolumns 4
datarows 58
range 3.01000000 3.58000000
endheader 
time	radius_imu_x	radius_imu_y	radius_imu_z	
          3.01000000	         -0.14281457	         10.00549443	          0.89542809	
          3.02000000	         -0.15977688	         10.04088537	          1.00871045	
          3.03000000	         -0.17629757	         10.08188271	          1.12135152	
          3.04000000	         -0.18439146	         10.11207382	          1.22747838	
          3.05000000	         -0.19327213	         10.15445771	          1.33089878	
          3.06000000	         -0.20230224	         10.19053193	          1.42620338	
          3.07000000	         -0.21368761	         10.22674557	          1.51269143	
          3.08000000	         -0.22781300	         10.26152029	          1.58998006	
          3.09000000	         -0.24648416	         10.29443448	          1.65716758	
          3.10000000	         -0.27065154	         10.32574716	          1.71471112	
          3.11000000	         -0.29981768	         10.35478544	          1.76129105	
          3.12000000	         -0.33355413	         10.38143583	          1.79609657	
          3.13000000	         -0.37042169	         10.40527209	          1.81756172	
          3.14000000	         -0.40873396	         10.42626968	          1.82478859	
          3.15000000	         -0.44669815	         10.44452591	          1.81723499	
          3.16000000	         -0.48234588	         10.45979176	          1.79383516	
          3.17000000	         -0.51412101	         10.47194680	          1.75401880	
          3.18000000	         -0.54068453	         10.48058821	          1.69723509	
          3.19000000	         -0.56148448	         10.48562128	          1.62393822	
          3.20000000	         -0.57621169	         10.48676467	          1.53490358	
          3.21000000	         -0.58503571	         10.48422244	          1.43237010	
          3.22000000	         -0.58811488	         10.47824726	          1.31896179	
          3.23000000	         -0.58549252	         10.46954402	          1.19826159	
          3.24000000	         -0.57739200	         10.45973040	          1.07597334	
          3.25000000	         -0.56350809	         10.45026173	          0.95682281	
          3.26000000	         -0.54369505	         10.44298154	          0.84589734	
          3.27000000	         -0.51739593	         10.43929316	          0.74673579	
          3.28000000	         -0.48460267	         10.44048629	          0.66220894	
          3.29000000	         -0.44570213	         10.44721937	          0.59354443	
          3.30000000	         -0.40162212	         10.45943033	          0.54030934	
          3.31000000	         -0.35379520	         10.47647833	          0.50089982	
          3.32000000	         -0.30382028	         10.49708046	          0.47249183	
          3.33000000	         -0.25341451	         10.51981168	          0.45208257	
          3.34000000	         -0.20386611	         10.54305872	          0.43635936	
          3.35000000	         -0.15613679	         10.56533694	          0.42237399	
          3.36000000	         -0.11068894	         10.58518528	          0.40736038	
          3.37000000	         -0.06765580	         10.60123091	          0.38890211	
          3.38000000	         -0.02690904	         10.61213632	          0.36481565	
          3.39000000	          0.01196748	         10.61656406	          0.33305762	
          3.40000000	          0.04970273	         10.61346215	          0.29220444	
          3.41000000	          0.08723064	         10.60246493	          0.24220357	
          3.42000000	          0.12237645	         10.58420547	          0.18478854	
          3.43000000	          0.15536158	         10.55767408	          0.11884364	
          3.44000000	          0.19426926	         10.51926670	          0.03944523	
          3.45000000	          0.22391581	         10.47769156	         -0.03814089	
          3.46000000	          0.25547286	         10.43550248	         -0.10992972	
          3.47000000	          0.28085413	         10.39616364	         -0.17168421	
          3.48000000	          0.30893771	         10.34723220	         -0.24238668	
          3.49000000	          0.32782203	         10.29909177	         -0.30609070	
          3.50000000	          0.32974763	         10.24474706	         -0.37397038	
          3.51000000	          0.36477945	         10.18296991	         -0.44686138	
          3.52000000	          0.36114295	         10.14282185	         -0.48545527	
          3.53000000	          0.34212196	         10.11363575	         -0.50765635	
          3.54000000	          0.33527529	         10.08369786	         -0.53021063	
          3.55000000	          0.32385306	         10.05399903	         -0.55205055	
          3.56000000	          0.30471314	         10.02350292	         -0.57437284	
          3.57000000	          0.29097291	         10.00523005	         -0.58125080	
          3.58000000	          0.26489208	          9.99318050	         -0.58149110	
